<?xml version="1.0" encoding="utf-8"?>
<!-- Generator: Adobe Illustrator 16.0.0, SVG Export Plug-In . SVG Version: 6.00 Build 0)  -->
<!DOCTYPE svg PUBLIC "-//W3C//DTD SVG 1.1//EN" "http://www.w3.org/Graphics/SVG/1.1/DTD/svg11.dtd">
<svg version="1.1" id="Layer_1" xmlns="http://www.w3.org/2000/svg" xmlns:xlink="http://www.w3.org/1999/xlink" x="0px" y="0px"
	 width="792px" height="612px" viewBox="0 0 792 612" enable-background="new 0 0 792 612" xml:space="preserve">
<g>
	<g>
		<path d="M560.995,95.472l-16.157-16.157l0,0c-20.562-20.563-53.855-20.563-73.929,0l-44.064,44.064
			c-19.095,19.094-20.563,49.449-3.427,70.013l-12.729,12.729v48.47l36.72-36.72c9.302,7.344,21.053,11.261,32.803,11.261
			c13.22,0,26.929-4.896,37.21-15.178l44.063-44.064C581.559,148.838,581.559,115.545,560.995,95.472z M537.005,145.411
			l-44.064,44.064c-5.875,5.875-14.198,6.854-21.053,3.427c5.386-6.854,4.896-16.646-1.469-22.521
			c-6.364-6.365-16.156-6.365-23.011-0.979c-1.469-2.448-1.959-5.385-1.959-8.323c0-4.896,1.959-9.303,5.386-12.73l44.064-44.064
			c3.427-3.427,8.323-5.385,12.729-5.385s9.303,1.958,12.729,5.385l0,0l16.157,16.157
			C543.859,126.807,543.859,138.067,537.005,145.411z"/>
		<path d="M381.312,283.479v-48.471l-33.782,33.783c-20.563-16.646-50.918-15.667-70.013,3.427l-44.064,44.063
			c-20.563,20.563-20.563,53.856,0,73.93l16.157,16.157c10.282,10.281,23.501,15.178,37.21,15.178
			c13.708,0,26.928-4.896,37.209-15.178l44.064-44.064c19.094-19.094,20.563-48.96,3.917-69.523L381.312,283.479z M343.613,338.803
			l-44.064,44.064c-6.854,6.854-18.605,6.854-25.459,0l-16.157-16.157c-3.427-3.427-5.385-7.833-5.385-12.729
			c0-4.896,1.958-9.302,5.385-12.729l44.064-44.064c3.427-3.427,8.323-5.385,12.729-5.385c3.427,0,6.854,0.979,9.792,2.938
			c-2.448,6.365-0.979,13.219,3.917,18.115c3.427,3.427,7.833,4.896,12.24,4.896c1.958,0,3.917-0.489,5.875-0.979
			C350.467,323.626,349.488,332.438,343.613,338.803z"/>
		<polygon points="312.278,204.653 305.424,240.883 368.583,218.361 		"/>
		<polygon points="381.802,147.859 344.592,157.651 379.843,209.059 		"/>
		<polygon points="430.272,342.23 463.564,306 404.323,284.947 		"/>
		<polygon points="466.013,282.499 468.461,256.061 431.741,270.259 		"/>
	</g>
</g>
</svg>
