<?xml version="1.0" encoding="utf-8"?>
<!-- Generator: Adobe Illustrator 16.0.0, SVG Export Plug-In . SVG Version: 6.00 Build 0)  -->
<!DOCTYPE svg PUBLIC "-//W3C//DTD SVG 1.1//EN" "http://www.w3.org/Graphics/SVG/1.1/DTD/svg11.dtd">
<svg version="1.1" id="Layer_1" xmlns="http://www.w3.org/2000/svg" xmlns:xlink="http://www.w3.org/1999/xlink" x="0px" y="0px"
	 width="792px" height="612px" viewBox="0 0 792 612" enable-background="new 0 0 792 612" xml:space="preserve">
<g>
	<polygon points="395.988,0 90.016,172.993 701.984,172.993 	"/>
	<rect x="90.016" y="192.338" width="611.969" height="48.164"/>
	<polygon points="692.627,551.424 692.627,523.096 660.727,523.096 660.727,259.098 578.032,259.098 578.032,523.096 
		511.872,523.096 511.872,259.098 429.178,259.098 429.178,523.096 363.016,523.096 363.016,259.098 280.315,259.098 
		280.315,523.096 214.155,523.096 214.155,259.098 131.46,259.098 131.39,523.096 99.373,523.096 99.373,551.424 73.579,551.424 
		73.579,612 718.422,612 718.422,551.424 	"/>
</g>
</svg>
