<?xml version="1.0" encoding="utf-8"?>
<!-- Generator: Adobe Illustrator 16.0.0, SVG Export Plug-In . SVG Version: 6.00 Build 0)  -->
<!DOCTYPE svg PUBLIC "-//W3C//DTD SVG 1.1//EN" "http://www.w3.org/Graphics/SVG/1.1/DTD/svg11.dtd">
<svg version="1.1" id="Layer_1" xmlns="http://www.w3.org/2000/svg" xmlns:xlink="http://www.w3.org/1999/xlink" x="0px" y="0px"
	 width="792px" height="612px" viewBox="0 0 792 612" enable-background="new 0 0 792 612" xml:space="preserve">
<g>
	<g>
		<path d="M405.792,289.354c0-5.386-4.406-9.792-9.792-9.792s-9.792,4.406-9.792,9.792v73.93H200.16v73.44h391.68v-73.44H405.792
			V289.354z"/>
		<path d="M299.549,254.103c35.251,10.281,67.075,11.261,74.909,11.261c0.979,0,1.958,0,1.958,0c3.917,0,6.854-2.938,7.344-6.854
			c0.49-2.938,5.386-67.075-57.283-105.264c-62.668-38.188-122.4,0.979-125.337,2.938c-2.448,1.958-3.917,4.896-2.938,8.323
			C210.931,207.101,245.693,237.946,299.549,254.103z"/>
		<path d="M593.309,156.183c-2.447-1.469-62.179-41.126-125.337-2.938c-62.669,38.189-57.283,102.327-57.283,104.774
			c0.489,3.917,3.427,6.365,7.344,6.854c0,0,0.979,0,1.958,0c8.323,0,40.147-0.49,74.909-11.261
			c53.855-15.667,88.617-47.001,100.857-89.597C596.736,161.079,595.757,157.651,593.309,156.183z"/>
	</g>
</g>
</svg>
