<svg xmlns="http://www.w3.org/2000/svg" xmlns:xlink="http://www.w3.org/1999/xlink" version="1.1" x="0px" y="0px" viewBox="0 0 50 50" enable-background="new 0 0 50 50" xml:space="preserve"><g><g><path d="M35.838,46.278l-0.008,0.027l-0.005,0.03c-0.142,0.759-0.869,1.262-1.633,1.119l-0.354-0.068l-0.387-0.073    c0.001-0.066-0.006-0.131-0.017-0.196l-0.429-2.815c0.054,0.013,0.106,0.023,0.159,0.032c0.128,0.025,0.248,0.047,0.363,0.07    c0.063,0.015,0.123,0.025,0.183,0.034c0.081,0.018,0.16,0.032,0.232,0.048c0.046,0.01,0.088,0.017,0.132,0.025    c0.109,0.02,0.209,0.04,0.294,0.058c0.216,0.04,0.343,0.066,0.343,0.066C35.479,44.781,35.979,45.515,35.838,46.278z"></path><path d="M43.628,36.738l-0.01,0.059c-0.144,0.761-0.878,1.264-1.643,1.123c0,0-0.106-0.02-0.305-0.057    c-0.493-0.09-1.537-0.286-2.805-0.523c-0.172-0.032-0.346-0.064-0.521-0.099c-0.474-0.085-0.966-0.176-1.471-0.27    c-0.061-0.011-0.124-0.025-0.185-0.034c-0.285-0.056-0.571-0.107-0.857-0.16c-2.837-0.528-5.682-1.059-5.85-1.093    c-0.528-0.101-0.659,0.606-0.128,0.707c0.287,0.054,3.166,0.593,5.738,1.07c0.072,0.013,0.145,0.023,0.218,0.036    c0.158,0.03,0.318,0.06,0.476,0.09c0.194,0.038,0.388,0.072,0.574,0.106c0.086,0.014,0.17,0.03,0.255,0.046    c0.678,0.126,1.294,0.237,1.782,0.333c0.105,0.018,0.2,0.036,0.286,0.05c0.121,0.023,0.231,0.045,0.33,0.063    c0.051,0.009,0.102,0.018,0.146,0.026c0.003,0,0.008,0,0.008,0c0.005,0.004,0.005,0.004,0.008,0.004    c0.229,0.041,0.353,0.064,0.353,0.064c0.765,0.143,1.266,0.879,1.124,1.641l-0.006,0.017v0.017l-0.008,0.023    c-0.142,0.764-0.875,1.265-1.638,1.121c0,0-0.097-0.019-0.272-0.051c-0.026-0.005-0.057-0.011-0.088-0.014    c-0.008-0.004-0.017-0.006-0.023-0.006c-0.04-0.009-0.085-0.017-0.131-0.023c-0.021-0.007-0.047-0.009-0.068-0.013    c-0.027-0.005-0.054-0.011-0.079-0.016c-0.061-0.011-0.124-0.023-0.191-0.034c-0.012-0.006-0.023-0.006-0.038-0.01    c-0.18-0.032-0.383-0.069-0.607-0.111c-0.052-0.011-0.104-0.02-0.155-0.028c-0.105-0.021-0.216-0.04-0.329-0.062    c-0.114-0.023-0.232-0.045-0.356-0.064c-0.101-0.021-0.203-0.039-0.309-0.058c-0.688-0.129-1.454-0.271-2.229-0.413    c-2.448-0.453-5.024-0.937-5.295-0.986c-0.53-0.099-0.667,0.607-0.134,0.708c0.313,0.06,3.011,0.569,5.181,0.981    c0.199,0.039,0.389,0.075,0.573,0.109c0.165,0.028,0.323,0.059,0.476,0.088c0.147,0.03,0.294,0.058,0.43,0.084    c0.227,0.042,0.436,0.081,0.622,0.115c0.072,0.015,0.139,0.025,0.2,0.04c0.041,0.005,0.076,0.013,0.109,0.021    c0.067,0.013,0.129,0.024,0.186,0.032c0.104,0.02,0.196,0.036,0.273,0.054c0.177,0.03,0.275,0.051,0.275,0.051    c0.761,0.144,1.266,0.877,1.121,1.639l-0.005,0.03l0.001,0.006l-0.005,0.024c-0.144,0.763-0.88,1.26-1.644,1.118    c0,0-0.098-0.017-0.272-0.052c-0.023-0.004-0.053-0.01-0.077-0.013c-0.009-0.004-0.016-0.006-0.021-0.004    c-0.064-0.013-0.138-0.025-0.218-0.041c-0.404-0.077-0.989-0.186-1.659-0.312c-0.156-0.031-0.321-0.062-0.487-0.092    c-0.271-0.055-0.553-0.108-0.839-0.164c-0.196-0.036-0.396-0.075-0.596-0.111c-0.138-0.316-0.353-0.588-0.637-0.796    c-0.425-0.311-0.946-0.437-1.469-0.357c-0.214,0.034-0.423,0.099-0.615,0.199c-0.178,0.094-0.337,0.216-0.475,0.349    c-0.408-0.075-0.718-0.133-0.873-0.162c-0.047-0.043-0.094-0.084-0.146-0.12c-0.425-0.312-0.945-0.44-1.468-0.359    c-0.217,0.034-0.42,0.103-0.614,0.205c-0.562,0.295-0.937,0.832-1.032,1.434c-0.429-0.481-1.088-0.747-1.773-0.642    c-0.218,0.034-0.424,0.104-0.616,0.203c-0.587,0.31-0.964,0.885-1.038,1.521c-0.431-0.477-1.083-0.733-1.761-0.629    c-0.217,0.034-0.424,0.101-0.618,0.201c-0.745,0.392-1.16,1.215-1.033,2.047l0.009,0.043c-0.131,0.021-0.266,0.032-0.369,0.031    l-5.149-0.2c-0.196-0.005-0.356-0.174-0.35-0.373l0.231-9.841c0.003-0.198,0.169-0.378,0.366-0.401l2.411-0.276    c0.196-0.021,0.472-0.154,0.611-0.297l3.968-4.039c0.139-0.143,0.408-0.302,0.598-0.361l0.41-0.124    c0.19-0.056,0.274,0.041,0.188,0.221l-0.313,0.656c-0.002,0.005-0.006,0.011-0.007,0.02c-0.669,1.39-1.594,3.278-2.046,4.09    c-0.454,0.816-0.367,1.67,0.232,2.284c0.757,0.774,2.087,0.928,3.161,0.363c0.355-0.187,0.669-0.444,0.935-0.764    c0.792-0.956,1.954-2.37,2.919-3.548c0.015-0.011,0.026-0.023,0.036-0.037l0.363-0.449c0.233-0.286,0.449-0.549,0.633-0.774    l0.154-0.192c0.01-0.017,0.025-0.027,0.035-0.042c0.002,0,0.002,0,0.005-0.001c0.133-0.13,0.363-0.203,0.537-0.17l1.94,0.365    c0.192,0.036,0.513,0.097,0.706,0.133l5.938,1.105l5.348,0.995l0.354,0.065C43.27,35.237,43.772,35.975,43.628,36.738z"></path><path d="M22.482,30.626c0.085-0.18,0.268-0.441,0.405-0.584l3.853-3.946c0.138-0.14,0.412-0.262,0.611-0.27l7.467-0.239    c0.197-0.005,0.467-0.133,0.596-0.282l1.597-1.83c0.131-0.149,0.372-0.181,0.538-0.072l8.23,5.4    c0.166,0.108,0.229,0.342,0.143,0.52l-2.414,4.898c-0.089,0.177-0.318,0.292-0.514,0.256l-14.957-2.854    c-0.194-0.038-0.454,0.058-0.579,0.21c0,0-2.831,3.463-4.431,5.395c-1.426,1.724-4.225,0.613-3.247-1.146    C20.552,34.691,22.482,30.626,22.482,30.626z"></path><g><g><path d="M30.792,42.886c0.79-0.122,1.528,0.419,1.649,1.209l0.475,3.104c0.122,0.787-0.419,1.526-1.208,1.646l0,0      c-0.79,0.122-1.527-0.419-1.647-1.208l-0.479-3.104C29.46,43.746,30.002,43.008,30.792,42.886L30.792,42.886z"></path></g><g><path d="M27.217,42.796c0.789-0.122,1.528,0.419,1.649,1.208l0.476,3.103c0.121,0.791-0.42,1.528-1.209,1.65l0,0      c-0.789,0.12-1.527-0.421-1.648-1.212l-0.479-3.102C25.885,43.654,26.425,42.918,27.217,42.796L27.217,42.796z"></path></g><g><path d="M23.795,43.791c0.787-0.12,1.526,0.423,1.648,1.21l0.287,1.876c0.122,0.789-0.421,1.525-1.208,1.647l0,0      c-0.789,0.122-1.527-0.418-1.649-1.209l-0.289-1.874C22.463,44.652,23.004,43.914,23.795,43.791L23.795,43.791z"></path></g><g><path d="M20.378,44.886c0.79-0.12,1.528,0.421,1.649,1.209l0.105,0.678c0.119,0.791-0.421,1.529-1.209,1.649l0,0      c-0.789,0.121-1.528-0.42-1.65-1.209l-0.104-0.678C19.048,45.745,19.59,45.006,20.378,44.886L20.378,44.886z"></path></g></g></g><circle cx="23.53" cy="21.479" r="1.512"></circle><circle cx="27.396" cy="19.832" r="1.513"></circle><circle cx="23.241" cy="25.505" r="1.512"></circle><circle cx="29.175" cy="23.39" r="1.513"></circle><circle cx="22.083" cy="16.629" r="1.512"></circle><circle cx="26.441" cy="16.095" r="1.513"></circle><circle cx="30.599" cy="17.695" r="1.513"></circle><circle cx="19.214" cy="20.432" r="1.513"></circle><path d="M34.669,21.943c0,0.837-0.678,1.511-1.515,1.511c-0.834,0-1.513-0.674-1.513-1.511c0-0.835,0.679-1.511,1.513-1.511   C33.991,20.432,34.669,21.107,34.669,21.943z"></path><circle cx="18.928" cy="25.291" r="1.514"></circle><circle cx="21.191" cy="28.848" r="1.513"></circle><circle cx="22.817" cy="12.891" r="1.514"></circle><circle cx="26.976" cy="12.357" r="1.513"></circle><path d="M32.646,13.96c0,0.835-0.678,1.511-1.514,1.511c-0.835,0-1.512-0.676-1.512-1.511c0-0.837,0.677-1.513,1.512-1.513   C31.969,12.447,32.646,13.123,32.646,13.96z"></path><circle cx="16.549" cy="17.163" r="1.514"></circle><path d="M36.205,16.629c0,0.836-0.679,1.512-1.511,1.512c-0.836,0-1.514-0.676-1.514-1.512c0-0.837,0.678-1.515,1.514-1.515   C35.526,15.114,36.205,15.792,36.205,16.629z"></path><circle cx="14.676" cy="20.899" r="1.512"></circle><circle cx="15.037" cy="25.215" r="1.513"></circle><circle cx="16.769" cy="29.53" r="1.511"></circle><circle cx="36.804" cy="20.432" r="1.513"></circle><circle cx="18.928" cy="14.139" r="1.514"></circle><circle cx="15.037" cy="13.427" r="1.513"></circle><circle cx="18.66" cy="10.756" r="1.513"></circle><circle cx="22.284" cy="9.245" r="1.513"></circle><circle cx="25.909" cy="8.796" r="1.513"></circle><circle cx="29.62" cy="9.245" r="1.513"></circle><circle cx="33.155" cy="10.756" r="1.514"></circle><circle cx="36.78" cy="13.427" r="1.513"></circle><circle cx="12.568" cy="17.163" r="1.513"></circle><circle cx="39.738" cy="17.163" r="1.513"></circle><circle cx="11.118" cy="20.899" r="1.512"></circle><circle cx="40.805" cy="21.769" r="1.512"></circle><circle cx="11.118" cy="24.635" r="1.512"></circle><circle cx="12.011" cy="28.371" r="1.513"></circle><circle cx="13.647" cy="32.874" r="1.513"></circle><circle cx="11.733" cy="10.347" r="1.977"></circle><path d="M18.445,6.858c0,1.091-0.886,1.977-1.977,1.977c-1.093,0-1.978-0.886-1.978-1.977c0-1.089,0.884-1.975,1.978-1.975   C17.559,4.884,18.445,5.77,18.445,6.858z"></path><circle cx="21.202" cy="4.884" r="1.976"></circle><path d="M27.916,4.294c0,1.092-0.887,1.977-1.982,1.977c-1.09,0-1.974-0.884-1.974-1.977c0-1.089,0.883-1.975,1.974-1.975   C27.029,2.319,27.916,3.205,27.916,4.294z"></path><circle cx="30.786" cy="4.884" r="1.975"></circle><path d="M37.38,6.858c0,1.091-0.884,1.977-1.977,1.977c-1.091,0-1.975-0.886-1.975-1.977c0-1.089,0.884-1.975,1.975-1.975   C36.496,4.884,37.38,5.77,37.38,6.858z"></path><path d="M42.117,10.347c0,1.093-0.888,1.975-1.98,1.975c-1.089,0-1.976-0.882-1.976-1.975s0.887-1.977,1.976-1.977   C41.229,8.37,42.117,9.254,42.117,10.347z"></path><path d="M10.485,15.226c0,1.093-0.885,1.979-1.979,1.979c-1.091,0-1.976-0.886-1.976-1.979c0-1.087,0.885-1.975,1.976-1.975   C9.6,13.251,10.485,14.139,10.485,15.226z"></path><path d="M45.488,14.938c0,1.093-0.889,1.979-1.98,1.979c-1.089,0-1.976-0.886-1.976-1.979c0-1.089,0.887-1.975,1.976-1.975   C44.6,12.963,45.488,13.849,45.488,14.938z"></path><path d="M8.589,20.106c0,1.094-0.884,1.977-1.976,1.977c-1.091,0-1.978-0.882-1.978-1.977c0-1.089,0.887-1.977,1.978-1.977   C7.705,18.13,8.589,19.018,8.589,20.106z"></path><path d="M46.938,19.819c0,1.094-0.883,1.977-1.977,1.977c-1.091,0-1.978-0.883-1.978-1.977c0-1.089,0.887-1.977,1.978-1.977   C46.055,17.842,46.938,18.73,46.938,19.819z"></path><circle cx="6.613" cy="24.991" r="1.977"></circle><path d="M47.052,24.761c0,1.087-0.882,1.975-1.976,1.975c-1.09,0-1.978-0.887-1.978-1.975c0-1.093,0.888-1.979,1.978-1.979   C46.17,22.782,47.052,23.668,47.052,24.761z"></path><circle cx="7.78" cy="29.87" r="1.977"></circle><g><circle cx="11.733" cy="10.347" r="1.977"></circle><path d="M18.445,6.858c0,1.091-0.886,1.977-1.977,1.977c-1.093,0-1.978-0.886-1.978-1.977c0-1.089,0.884-1.975,1.978-1.975    C17.559,4.884,18.445,5.77,18.445,6.858z"></path><circle cx="21.202" cy="4.884" r="1.976"></circle><path d="M27.916,4.294c0,1.092-0.887,1.977-1.982,1.977c-1.09,0-1.974-0.884-1.974-1.977c0-1.089,0.883-1.975,1.974-1.975    C27.029,2.319,27.916,3.205,27.916,4.294z"></path><circle cx="30.786" cy="4.884" r="1.975"></circle><path d="M37.38,6.858c0,1.091-0.884,1.977-1.977,1.977c-1.091,0-1.975-0.886-1.975-1.977c0-1.089,0.884-1.975,1.975-1.975    C36.496,4.884,37.38,5.77,37.38,6.858z"></path><path d="M42.117,10.347c0,1.093-0.888,1.975-1.98,1.975c-1.089,0-1.976-0.882-1.976-1.975s0.887-1.977,1.976-1.977    C41.229,8.37,42.117,9.254,42.117,10.347z"></path><path d="M10.485,15.226c0,1.093-0.885,1.979-1.979,1.979c-1.091,0-1.976-0.886-1.976-1.979c0-1.087,0.885-1.975,1.976-1.975    C9.6,13.251,10.485,14.139,10.485,15.226z"></path><path d="M8.589,20.106c0,1.094-0.884,1.977-1.976,1.977c-1.091,0-1.978-0.882-1.978-1.977c0-1.089,0.887-1.977,1.978-1.977    C7.705,18.13,8.589,19.018,8.589,20.106z"></path><circle cx="6.613" cy="24.991" r="1.977"></circle><circle cx="7.78" cy="29.87" r="1.977"></circle></g><path d="M31.593,48.432c-0.059-0.045-0.117-0.09-0.176-0.135l0.004-0.002C31.479,48.338,31.534,48.385,31.593,48.432z"></path><path d="M11.708,34.724c0,1.091-0.885,1.973-1.979,1.973c-1.091,0-1.976-0.882-1.976-1.973c0-1.093,0.885-1.975,1.976-1.975   C10.823,32.749,11.708,33.631,11.708,34.724z"></path></g></svg>