<?xml version="1.0" encoding="utf-8"?>
<!-- Generator: Adobe Illustrator 16.0.0, SVG Export Plug-In . SVG Version: 6.00 Build 0)  -->
<!DOCTYPE svg PUBLIC "-//W3C//DTD SVG 1.1//EN" "http://www.w3.org/Graphics/SVG/1.1/DTD/svg11.dtd">
<svg version="1.1" id="Layer_1" xmlns:sketch="http://www.bohemiancoding.com/sketch/ns"
	 xmlns="http://www.w3.org/2000/svg" xmlns:xlink="http://www.w3.org/1999/xlink" x="0px" y="0px" width="792px" height="612px"
	 viewBox="0 0 792 612" enable-background="new 0 0 792 612" xml:space="preserve">
<title>b3</title>
<desc>Created with Sketch.</desc>
<g sketch:type="MSPage">
	<path sketch:type="MSShapeGroup" d="M557.518,203.262c0,5.272-4.273,9.546-9.546,9.546s-9.547-4.274-9.547-9.546
		s4.274-9.546,9.547-9.546S557.518,197.989,557.518,203.262 M342.916,67.721c0.75,1.842,1.55,3.686,2.396,5.527
		c20.268,44.086,57.195,74.425,99.815,106.743c6.643,5.037,13.507,10.511,20.165,16.428c-4.732,4.804-9.15,9.734-13.276,14.55
		c-21.455-23.871-53.583-37.214-81.634-46.496c-22.147-7.33-43.077-14.639-62.236-23.479c0.069-0.258,0.127-0.513,0.196-0.771
		C317.146,107.571,333.202,81.473,342.916,67.721 M535.99,296.469c-10.977,25.878-22.328,52.635-36.855,74.479
		c-23.055,34.667-70.951,57.85-124.999,60.498c-62.594,3.095-141.235-21.815-179.391-99.733c33.836-3.09,62.899-6.873,88.136-11.416
		c9.838,6.804,20.607,12.995,32.334,18.546c1.056,0.499,2.167,0.734,3.263,0.734c2.861,0,5.604-1.614,6.908-4.371
		c1.804-3.812,0.176-8.367-3.637-10.169c-61.14-28.931-94.267-75.858-98.462-139.479c-2.224-33.748,4.532-63.632,9.28-79.786
		c1.304,1.5,2.656,2.986,4.054,4.457c33.434,35.167,78.187,51.94,128.963,68.745c35.179,11.64,77.29,29.938,90.793,68.433
		c1.396,3.98,5.749,6.073,9.734,4.678c3.98-1.396,6.074-5.755,4.679-9.734c-2.415-6.886-5.557-13.188-9.274-18.979
		c17.08-20.251,37.963-41.914,65.277-46.479c14.058-2.348,29.029,0.704,44.495,9.066c9.501,5.14,18.013,15.06,23.683,22.428
		C569.263,218.027,553.661,254.812,535.99,296.469 M613.426,207.581c-0.5-0.635-1.358-1.805-2.134-2.864
		c-5.711-7.79-17.594-24.002-32.738-32.192c-18.523-10.021-36.785-13.614-54.278-10.698c-18.533,3.097-34.296,12.55-47.793,24.104
		c-7.304-6.557-14.837-12.584-22.127-18.112c-40.949-31.052-76.375-60.08-95.165-100.952c-2.65-5.76-4.766-11.51-6.29-17.09
		c-0.562-2.062-1.963-3.797-3.863-4.776c-5.616-2.896-9.219,1.578-11.604,4.539c-1.262,1.567-3.296,4.174-5.833,7.698
		c-10.597,14.722-27.707,42.136-37.425,76.847c-17.401-9.256-33.062-20.26-46.484-34.379c-4.373-4.602-8.234-9.36-11.475-14.142
		c-1.199-1.769-3.087-2.957-5.202-3.27c-6.236-0.929-8.216,4.475-9.514,8.052c-0.688,1.894-1.772,5.023-3.035,9.187
		c-6.482,21.356-16.079,64.084-7.536,110.294c7.304,39.507,25.954,72.252,55.621,97.867c-24.29,3.851-51.969,7.049-83.876,9.746
		c-2.439,0.206-4.631,1.568-5.896,3.664s-1.448,4.671-0.494,6.926c17.195,40.604,46.42,72.972,84.52,93.609
		c30.764,16.665,66.035,25.344,102.652,25.344c3.794,0,7.609-0.093,11.428-0.279c59.688-2.927,110.891-28.084,136.97-67.298
		c15.314-23.026,26.947-50.451,38.196-76.971c17.721-41.772,34.458-81.228,58.634-81.23c4.217,0,7.637-3.42,7.637-7.637
		C616.32,211.142,615.188,208.98,613.426,207.581"/>
</g>
</svg>
