<?xml version="1.0" encoding="utf-8"?>
<!-- Generator: Adobe Illustrator 16.0.0, SVG Export Plug-In . SVG Version: 6.00 Build 0)  -->
<!DOCTYPE svg PUBLIC "-//W3C//DTD SVG 1.1//EN" "http://www.w3.org/Graphics/SVG/1.1/DTD/svg11.dtd">
<svg version="1.1" id="Layer_1" xmlns="http://www.w3.org/2000/svg" xmlns:xlink="http://www.w3.org/1999/xlink" x="0px" y="0px"
	 width="792px" height="612px" viewBox="0 0 792 612" enable-background="new 0 0 792 612" xml:space="preserve">
<path d="M561.778,379.44l-87.442-86.023V250.92h-42.838v-30.6h42.838V122.4h-42.423l-35.655-24.48h10.759V0H302.977v97.92h11.15
	l-35.245,24.48h-43.227v97.92h97.92V122.4h-37.442l35.245-24.48h47.485l35.655,24.48h-38.103v97.92h42.841v30.6h-42.841v97.92
	h42.841v30.601h-42.841v97.92h42.841v30.601h-42.841V612h97.92V507.962h-42.838v-30.601h42.838v-97.92h-42.838v-30.6h42.838v-41.354
	l73.367,71.952h-30.526v97.92h97.92v-97.92H561.778z M327.456,18.36h55.08v61.2h-55.08V18.36z"/>
</svg>
