<?xml version="1.0" encoding="utf-8"?>
<!-- Generator: Adobe Illustrator 16.0.0, SVG Export Plug-In . SVG Version: 6.00 Build 0)  -->
<!DOCTYPE svg PUBLIC "-//W3C//DTD SVG 1.1//EN" "http://www.w3.org/Graphics/SVG/1.1/DTD/svg11.dtd">
<svg version="1.1" id="Layer_1" xmlns="http://www.w3.org/2000/svg" xmlns:xlink="http://www.w3.org/1999/xlink" x="0px" y="0px"
	 width="792px" height="612px" viewBox="0 0 792 612" enable-background="new 0 0 792 612" xml:space="preserve">
<path d="M184.982,146.391c4.406,5.385,6.854,21.542,7.833,25.949c2.448,15.667,5.386,38.188,5.875,53.856c0,0.979,0,2.448,0,3.427
	c0.489,6.854,1.958,13.219,4.896,19.584c16.157,34.761,47.98,78.335,47.98,78.335l1.958,2.448c1.469,1.959,3.917,2.448,5.875,1.469
	c2.448-1.469,2.938-4.406,1.958-6.364l-42.595-69.034c-4.406-7.834-1.958-18.605,6.365-23.501
	c8.323-4.896,19.095-2.448,23.991,5.386l44.064,56.793c2.938,3.917,8.323,8.812,12.24,11.75
	c39.658,28.397,45.043,57.773,48.471,72.461c0,0,0.489,3.428,0.489,8.323l0,0l0,0c0,3.917,0,8.812-0.979,13.709l-2.448,47.491
	c0,3.427-2.938,6.365-6.365,6.365l-74.419-0.49c-3.427,0-6.365-2.938-6.365-6.364l-1.469-39.168l-71.482-85.681
	c-10.281-11.261-17.625-23.5-19.584-38.678l-0.489-4.406l-12.73-119.462c-0.489-5.875,1.469-11.75,5.875-15.667
	C169.805,140.515,178.618,139.046,184.982,146.391z M203.098,154.713c1.469,4.407,1.958,8.323,2.938,12.73
	c2.448,13.708,5.386,38.188,5.875,50.918c0,1.469,0,2.448,0,3.917c1.469-1.469,2.938-2.448,4.896-3.427
	c1.958-1.469,4.406-2.448,6.854-2.938c0,0,0-0.49,0.49-0.49c-1.469-12.24-5.875-35.741-9.302-47.98
	C212.4,161.079,208.973,156.672,203.098,154.713z M226.599,171.85c1.958,8.813,6.854,25.459,8.323,34.272l0.979,5.875
	c0,0.49,0,0.979,0,1.469c3.427,0,7.344,0.979,10.771,1.958c-0.979-7.833-6.365-23.99-8.323-31.334
	C236.391,178.214,232.474,173.808,226.599,171.85z M607.018,146.391c-4.406,5.385-6.854,21.542-7.834,25.949
	c-2.447,15.667-5.385,38.188-5.875,53.856c0,0.979,0,2.448,0,3.427c-0.489,6.854-1.958,13.219-4.896,19.584
	c-16.157,34.761-47.981,78.335-47.981,78.335l-1.958,2.448c-1.469,1.959-3.917,2.448-5.875,1.469
	c-2.448-1.469-2.938-4.406-1.959-6.364l42.596-69.034c4.406-7.834,1.958-18.605-6.365-23.501s-19.094-2.448-23.99,5.386
	l-44.063,56.793c-2.938,3.917-8.323,8.812-12.24,11.75c-39.658,28.397-45.043,57.773-48.471,72.461c0,0-0.489,3.428-0.489,8.323l0,0
	c0,3.917,0,8.812,0.979,13.709l2.448,47.491c0,3.427,2.938,6.365,6.365,6.365l74.419-0.49c3.427,0,6.365-2.938,6.365-6.364
	l1.469-39.168l71.481-85.681c10.281-11.261,17.625-23.5,19.584-38.678l0.489-4.406l12.24-119.952
	c0.489-5.875-1.469-11.75-5.875-15.667C622.195,140.515,613.383,139.046,607.018,146.391z M568.829,215.424
	c2.448,0.979,4.406,1.958,6.854,2.938c1.958,0.979,3.427,2.448,4.896,3.427c0-1.469,0-2.448,0-3.917
	c0.489-12.729,3.428-37.209,5.875-50.918c0.49-3.917,1.469-8.323,2.938-12.729c-6.364,1.958-9.792,6.365-11.261,12.729
	C574.704,179.193,570.298,202.694,568.829,215.424C568.829,214.935,568.829,215.424,568.829,215.424z M545.817,215.424
	c3.428-1.469,6.854-1.958,10.771-1.958c0-0.49,0-0.979,0-1.469l0.979-5.875c0.979-8.813,6.364-24.97,8.322-34.272
	c-5.875,1.958-9.302,6.365-11.26,12.24C552.183,191.434,546.797,207.59,545.817,215.424z M496.857,186.538
	c-2.938,13.709-8.323,26.438-15.667,37.699l13.709,13.709c3.427,3.427,3.427,8.812,0,12.24l-16.646,16.646
	c-3.428,3.427-8.812,3.427-12.24,0l-13.709-13.709c-11.261,7.344-23.99,12.729-37.699,15.667v19.584
	c0,4.896-3.916,8.812-8.812,8.812h-23.501c-4.896,0-8.812-3.917-8.812-8.812v-19.584c-13.709-2.938-26.438-8.323-37.699-15.667
	l-13.709,13.709c-3.427,3.427-8.812,3.427-12.24,0l-16.646-16.646c-3.427-3.427-3.427-8.812,0-12.24l13.708-13.709
	c-7.344-11.261-12.729-23.99-15.667-37.699h-19.584c-4.896,0-8.813-3.917-8.813-8.813v-23.5c0-4.896,3.917-8.813,8.813-8.813h19.584
	c2.938-13.709,8.323-26.438,15.667-37.699l-13.708-13.709c-3.427-3.427-3.427-8.812,0-12.24l16.646-16.646
	c3.427-3.427,8.812-3.427,12.24,0l13.709,13.709c11.261-7.344,23.99-12.729,37.699-15.667V43.574c0-4.896,3.917-8.812,8.812-8.812
	h23.501c4.896,0,8.812,3.917,8.812,8.812v19.584c13.709,2.938,26.438,8.323,37.699,15.667l13.709-13.709
	c3.428-3.427,8.812-3.427,12.24,0l16.646,16.646c3.427,3.427,3.427,8.813,0,12.24l-13.709,13.709
	c7.344,11.261,12.729,23.99,15.667,37.699h19.584c4.896,0,8.812,3.917,8.812,8.813v23.5c0,4.896-3.916,8.813-8.812,8.813H496.857z
	 M453.283,165.975c0-32.803-26.438-59.242-59.242-59.242S334.8,133.171,334.8,165.975c0,32.803,26.438,59.241,59.242,59.241
	S453.283,198.777,453.283,165.975z M394.042,133.171c-18.115,0-32.313,14.688-32.313,32.313c0,18.115,14.688,32.313,32.313,32.313
	c18.116,0,32.314-14.688,32.314-32.313S411.667,133.171,394.042,133.171z"/>
</svg>
