<?xml version="1.0" encoding="utf-8"?>
<!-- Generator: Adobe Illustrator 16.0.0, SVG Export Plug-In . SVG Version: 6.00 Build 0)  -->
<!DOCTYPE svg PUBLIC "-//W3C//DTD SVG 1.1//EN" "http://www.w3.org/Graphics/SVG/1.1/DTD/svg11.dtd">
<svg version="1.1" id="Layer_1" xmlns="http://www.w3.org/2000/svg" xmlns:xlink="http://www.w3.org/1999/xlink" x="0px" y="0px"
	 width="792px" height="612px" viewBox="0 0 792 612" enable-background="new 0 0 792 612" xml:space="preserve">
<path d="M381.037-1.655c-46.183-1.811-124.963,24.448-129.49,131.299c-0.905,8.15-9.055,102.325,39.842,157.561
	c21.731,24.448,51.614,37.124,88.741,38.03h0.907h1.81h0.906c37.128-0.906,66.104-13.584,88.741-38.03
	c48.897-54.331,40.75-148.504,39.843-157.561C505.094,22.793,426.313-3.466,381.037-1.655z M480.643,132.361
	c0,0.906,9.058,88.74-31.692,134.922c-16.299,18.11-38.031,28.071-67.007,28.071c0,0,0,0-0.906,0c0,0,0,0-0.907,0
	c-28.977,0-50.708-9.055-67.008-28.071c-40.749-46.182-32.598-134.018-31.694-134.922v-0.904
	c4.528-95.985,74.252-103.229,95.984-103.229c0.906,0,2.717,0,3.621,0h0.907c15.393-0.906,94.174,1.811,98.7,103.229v0.904H480.643z
	 M122.057,485.515c-3.621-57.048,17.206-95.081,57.952-105.946c57.953-14.488,105.946-47.99,105.946-48.896l17.204,24.448
	c-1.811,1.812-52.519,37.128-115.905,53.427c-34.41,9.056-36.221,50.709-34.41,75.159v0.903v0.906
	c0,11.771,0.907,30.789,2.718,40.75c19.921,10.866,101.417,53.424,226.379,53.424v29.883c-152.126,0-243.584-57.955-247.208-60.671
	l-3.622-2.718l-1.811-4.527C122.057,525.356,122.057,492.76,122.057,485.515z M675.327,426.654h-41.651v-41.65
	c0-47.994-38.937-86.932-86.93-86.932c-47.989,0-86.928,38.938-86.928,86.932v40.746h-41.654v176.577h256.263V426.656h0.9V426.654z
	 M490.604,385.002c0-30.789,25.353-57.05,57.048-57.05c31.694,0,57.047,25.356,57.047,57.05v40.748H491.51v-40.748H490.604
	L490.604,385.002z M644.542,572.443H448.045V456.538h196.497V572.443z"/>
</svg>
